<?xml version="1.0" encoding="UTF-8" standalone="no"?>
<svg
   xmlns:dc="http://purl.org/dc/elements/1.1/"
   xmlns:cc="http://creativecommons.org/ns#"
   xmlns:rdf="http://www.w3.org/1999/02/22-rdf-syntax-ns#"
   xmlns:svg="http://www.w3.org/2000/svg"
   xmlns="http://www.w3.org/2000/svg"
   xmlns:sodipodi="http://sodipodi.sourceforge.net/DTD/sodipodi-0.dtd"
   xmlns:inkscape="http://www.inkscape.org/namespaces/inkscape"
   width="640"
   height="480"
   id="svg3425"
   version="1.1"
   inkscape:version="0.91 r13725"
   sodipodi:docname="film_frame.svg">
  <defs
     id="defs3445" />
  <sodipodi:namedview
     pagecolor="#ffffff"
     bordercolor="#666666"
     borderopacity="1"
     objecttolerance="10"
     gridtolerance="10"
     guidetolerance="10"
     inkscape:pageopacity="0"
     inkscape:pageshadow="2"
     inkscape:window-width="1855"
     inkscape:window-height="1056"
     id="namedview3443"
     showgrid="false"
     inkscape:zoom="1.3538149"
     inkscape:cx="322.65078"
     inkscape:cy="152.39883"
     inkscape:window-x="65"
     inkscape:window-y="24"
     inkscape:window-maximized="1"
     inkscape:current-layer="layer1" />
  <metadata
     id="metadata4">image/svg+xml<rdf:RDF>
  <cc:Work
     rdf:about="">
    <dc:format>image/svg+xml</dc:format>
    <dc:type
       rdf:resource="http://purl.org/dc/dcmitype/StillImage" />
  </cc:Work>
</rdf:RDF>
</metadata>
  <g
     id="g3428">
    <title
       id="title3430">Layer 1</title>
    <g
       id="layer1"
       transform="matrix(1,0,0,-1,0,476.11468)"
       inkscape:export-xdpi="34.68"
       inkscape:export-ydpi="34.68">
      <path
         stroke-miterlimit="4"
         d="m 0,0 0,476.11468 519,0 L 519,0 293.35971,0 C 286.41727,12.520905 273.07156,21.005066 257.74957,21.005066 242.42761,21.005066 229.08191,12.520905 222.13943,0 L 0,0 Z m 28.006737,25.381104 16.629013,0 c 3.394073,0 6.126472,2.732422 6.126472,6.12648 l 0,28.881958 c 0,3.394073 -2.732399,6.12648 -6.126472,6.12648 l -16.629013,0 c -3.394058,0 -6.126469,-2.732407 -6.126469,-6.12648 l 0,-28.881958 c 0,-3.394058 2.73241,-6.12648 6.126469,-6.12648 z m 65.148506,0 16.629017,0 c 3.39405,0 6.12648,2.732422 6.12648,6.12648 l 0,28.881958 c 0,3.394073 -2.73243,6.12648 -6.12648,6.12648 l -16.629017,0 c -3.394058,0 -6.12648,-2.732407 -6.12648,-6.12648 l 0,-28.881958 c 0,-3.394058 2.732422,-6.12648 6.12648,-6.12648 z m 65.121157,0 16.62901,0 c 3.39406,0 6.12647,2.732422 6.12647,6.12648 l 0,28.881958 c 0,3.394073 -2.73241,6.12648 -6.12647,6.12648 l -16.62901,0 c -3.39407,0 -6.12647,-2.732407 -6.12647,-6.12648 l 0,-28.881958 c 0,-3.394058 2.73239,-6.12648 6.12647,-6.12648 z m 65.1485,0 16.62902,0 c 3.39405,0 6.12647,2.732422 6.12647,6.12648 l 0,28.881958 c 0,3.394073 -2.73242,6.12648 -6.12647,6.12648 l -16.62902,0 c -3.39405,0 -6.12647,-2.732407 -6.12647,-6.12648 l 0,-28.881958 c 0,-3.394058 2.73242,-6.12648 6.12647,-6.12648 z m 65.14853,0 16.62899,0 c 3.39405,0 6.12647,2.732422 6.12647,6.12648 l 0,28.881958 c 0,3.394073 -2.73242,6.12648 -6.12647,6.12648 l -16.62899,0 c -3.39408,0 -6.1265,-2.732407 -6.1265,-6.12648 l 0,-28.881958 c 0,-3.394058 2.73242,-6.12648 6.1265,-6.12648 z m 65.14849,0 16.629,0 c 3.39408,0 6.12647,2.732422 6.12647,6.12648 l 0,28.881958 c 0,3.394073 -2.73239,6.12648 -6.12647,6.12648 l -16.629,0 c -3.39407,0 -6.12649,-2.732407 -6.12649,-6.12648 l 0,-28.881958 c 0,-3.394058 2.73242,-6.12648 6.12649,-6.12648 z m 65.12113,0 16.62903,0 c 3.39407,0 6.12646,2.732422 6.12646,6.12648 l 0,28.881958 c 0,3.394073 -2.73239,6.12648 -6.12646,6.12648 l -16.62903,0 c -3.39404,0 -6.12647,-2.732407 -6.12647,-6.12648 l 0,-28.881958 c 0,-3.394058 2.73243,-6.12648 6.12647,-6.12648 z m 65.14853,0 16.62896,0 c 3.39411,0 6.12653,2.732422 6.12653,6.12648 l 0,28.881958 c 0,3.394073 -2.73242,6.12648 -6.12653,6.12648 l -16.62896,0 c -3.39411,0 -6.12647,-2.732407 -6.12647,-6.12648 l 0,-28.881958 c 0,-3.394058 2.73236,-6.12648 6.12647,-6.12648 z m -460.360888,49.01181 471.738628,0 c 6.78809,0 12.25293,5.464813 12.25293,12.25296 l 0,300.197296 c 0,6.78812 -5.46484,12.25293 -12.25293,12.25293 l -471.738628,0 c -6.788132,0 -12.252953,-5.46481 -12.252953,-12.25293 l 0,-300.197296 c 0,-6.788147 5.464821,-12.25296 12.252953,-12.25296 z m 3.500847,334.330536 16.629005,0 c 3.394066,0 6.126472,2.73242 6.126472,6.12646 l 0,28.88196 c 0,3.39411 -2.732407,6.12647 -6.126472,6.12647 l -16.629005,0 c -3.394081,0 -6.12648,-2.73236 -6.12648,-6.12647 l 0,-28.88196 c 0,-3.39404 2.732399,-6.12646 6.12648,-6.12646 z m 65.148506,0 16.628995,0 c 3.39408,0 6.12648,2.73242 6.12648,6.12646 l 0,28.88196 c 0,3.39411 -2.7324,6.12647 -6.12648,6.12647 l -16.628995,0 c -3.394073,0 -6.12648,-2.73236 -6.12648,-6.12647 l 0,-28.88196 c 0,-3.39404 2.732407,-6.12646 6.12648,-6.12646 z m 65.121135,0 16.62902,0 c 3.39406,0 6.12648,2.73242 6.12648,6.12646 l 0,28.88196 c 0,3.39411 -2.73242,6.12647 -6.12648,6.12647 l -16.62902,0 c -3.39405,0 -6.12646,-2.73236 -6.12646,-6.12647 l 0,-28.88196 c 0,-3.39404 2.73241,-6.12646 6.12646,-6.12646 z m 65.1485,0 16.62903,0 c 3.39407,0 6.12647,2.73242 6.12647,6.12646 l 0,28.88196 c 0,3.39411 -2.73239,6.12647 -6.12647,6.12647 l -16.62903,0 c -3.39404,0 -6.12646,-2.73236 -6.12646,-6.12647 l 0,-28.88196 c 0,-3.39404 2.73242,-6.12646 6.12646,-6.12646 z m 65.14853,0 16.629,0 c 3.39407,0 6.12647,2.73242 6.12647,6.12646 l 0,28.88196 c 0,3.39411 -2.73239,6.12647 -6.12647,6.12647 l -16.629,0 c -3.39407,0 -6.12649,-2.73236 -6.12649,-6.12647 l 0,-28.88196 c 0,-3.39404 2.73242,-6.12646 6.12649,-6.12646 z m 65.1485,0 16.629,0 c 3.39407,0 6.12647,2.73242 6.12647,6.12646 l 0,28.88196 c 0,3.39411 -2.7324,6.12647 -6.12647,6.12647 l -16.629,0 c -3.39407,0 -6.12649,-2.73236 -6.12649,-6.12647 l 0,-28.88196 c 0,-3.39404 2.73242,-6.12646 6.12649,-6.12646 z m 65.12116,0 16.629,0 c 3.39407,0 6.12646,2.73242 6.12646,6.12646 l 0,28.88196 c 0,3.39411 -2.73239,6.12647 -6.12646,6.12647 l -16.629,0 c -3.39408,0 -6.1265,-2.73236 -6.1265,-6.12647 l 0,-28.88196 c 0,-3.39404 2.73242,-6.12646 6.1265,-6.12646 z m 65.14846,0 16.62903,0 c 3.39405,0 6.12647,2.73242 6.12647,6.12646 l 0,28.88196 c 0,3.39411 -2.73242,6.12647 -6.12647,6.12647 l -16.62903,0 c -3.39404,0 -6.12646,-2.73236 -6.12646,-6.12647 l 0,-28.88196 c 0,-3.39404 2.73242,-6.12646 6.12646,-6.12646 z"
         id="path7732"
         style="fill:#2e2e2e;fill-opacity:1;fill-rule:nonzero;stroke-width:7.08661413;stroke-linecap:round;stroke-linejoin:round;stroke-miterlimit:4;stroke-dashoffset:0"
         inkscape:connector-curvature="0"
         inkscape:export-xdpi="34.68"
         inkscape:export-ydpi="34.68" />
      <path
         stroke-miterlimit="4"
         id="rect7548"
         d="m 168.72423,0 0,0.054703 -0.0547,0 0,12.061493 -5.55211,0 0,-12.061493 -6.20855,0 0,25.490509 c 0.44101,-0.100189 0.89534,-0.164108 1.36753,-0.164108 l 16.62901,0 c 2.59857,0 4.79533,1.609726 5.68887,3.883759 l 0.2188,0 5.88032,0 0,-29.264862 -6.20852,0 0,11.678589 -5.55213,0 0,-11.678589 -6.20852,0 z m 128.21837,0 0,25.381104 8.25982,0 c 2.62052,0 4.83762,1.633835 5.71622,3.938461 l 3.99313,0 0,-29.319565 -6.20852,0 0,11.733292 -5.5521,0 0,-11.733292 -6.20855,0 z M 0.273499,0.054703 l 0,12.00679 6.181183,0 0,-12.00679 -6.181183,0 z m 32.79306,0 0,25.326401 11.569191,0 c 2.766853,0 5.087357,1.811523 5.852974,4.321365 l 0.547005,0 0,-29.647766 -6.208527,0 0,12.061493 -5.552109,0 0,-12.061493 -6.208534,0 z m 434.569521,0 0,12.00679 6.18118,0 0,-12.00679 -6.18118,0 z m 32.79306,0 0,25.326401 0.1914,0 c 2.76685,0 5.08741,1.811523 5.85303,4.321365 l 0.16406,0 5.88031,0 5.88037,0 0,-29.647766 -6.20855,0 0,12.061493 -5.55213,0 0,-12.061493 -6.20849,0 z m -487.465078,0.30085 0,11.760643 -6.20853,0 0,17.586273 6.20853,0 0,-17.312775 6.181179,0 0,17.640976 2.926476,0 c 0.441246,-1.790527 1.655556,-3.268219 3.282043,-4.047852 l 0,-25.627266 -6.208519,0 -6.181179,0 z m 467.362538,0 0,11.760643 -6.2085,0 0,17.586273 4.02051,0 c 0.38483,-1.261612 1.15656,-2.349533 2.18799,-3.117935 l 0,-14.194839 6.18121,0 0,12.991409 6.2085,0 0,-25.025551 -6.2085,0 -6.18121,0 z m -266.85723,0.027344 0,12.034157 6.20855,0 0,-12.034157 -6.20855,0 z m 174.11226,2.707695 c -3.31305,0.280762 -5.05151,3.910248 -4.89572,7.001678 -0.34085,3.429626 1.11273,8.15004 5.38803,7.685455 4.57212,-0.29039 5.56894,-7.716049 1.4769,-9.435883 -1.42184,-0.882172 -5.27566,1.424072 -3.61023,-1.668365 1.07321,-2.799774 5.98212,0.719101 5.25125,-2.981186 -0.91861,-0.40834 -1.92138,-0.621124 -2.92648,-0.6017 -0.23489,-0.012085 -0.46289,-0.018723 -0.68375,0 z m 9.49057,0.082047 c -0.8847,0.035301 -1.77279,0.280533 -2.54358,0.738464 -1.02743,4.839127 3.25495,-0.049644 4.92307,2.844421 1.31729,2.05162 1.23529,4.901749 0.32819,7.08374 -0.94852,3.428238 -5.34629,-0.872147 -5.33332,2.352142 0.76313,2.649368 4.61435,1.769592 6.37262,0.656403 2.70075,-2.151779 2.91773,-6.207565 2.10599,-9.326462 -0.44003,-2.773834 -3.19891,-4.454636 -5.85297,-4.348709 z M 113.91415,5.305963 c -1.01228,0.030426 -2.01626,0.297249 -2.78973,0.957268 -1.93584,1.550476 -2.15596,5.077499 0.082,6.454681 -0.196,0.783173 -1.36953,2.191895 -1.12136,3.473495 -0.10837,2.039307 1.62262,3.867477 3.63759,3.938446 1.69017,0.386139 3.52841,-0.545456 4.26665,-2.105988 1.01112,-1.68631 0.33594,-4.351822 -1.69573,-4.868362 0.97809,-0.214264 1.75049,-0.985062 2.18804,-1.859818 1.25719,-2.269363 -0.43692,-5.137543 -2.76238,-5.825615 -0.56826,-0.1334 -1.19777,-0.182358 -1.80513,-0.164108 z m -34.488774,0.054695 0,3.61026 -17.285408,0 0,5.688858 17.285408,0 0,3.610245 5.579475,-3.227341 5.579468,-3.227341 -5.579468,-3.227341 -5.579475,-3.227341 z m 48.027194,0.027367 c -0.45909,-0.00307 -0.92378,0.087044 -1.34016,0.273499 -2.13118,-0.45256 -4.53021,0.782227 -5.25127,2.871773 -0.37648,1.173691 -0.35679,2.815582 0.82052,3.528198 1.24646,0.376434 1.21276,1.836792 0.24614,2.516235 -1.36326,1.093826 -0.78313,3.286789 0.49231,4.211945 2.39636,1.61087 5.37956,0.833893 8.06835,1.011963 0.0386,-2.148209 -0.0204,-4.306488 -0.0274,-6.454681 -0.22696,-1.901901 0.59112,-3.813675 0.0547,-5.688858 -0.28999,-1.425293 -1.68598,-2.260918 -3.06323,-2.270073 z M 114.0509,7.630739 c 0.77231,-0.018555 1.55185,0.36702 1.88718,1.176071 0.86037,1.293488 -0.0409,3.367813 -1.69572,3.172638 -1.57401,0.17746 -2.51816,-1.684662 -1.94188,-3.00853 0.22633,-0.890839 0.97812,-1.321609 1.75042,-1.340179 z m 11.4598,0.136749 c 2.06961,-0.048981 3.13934,2.635239 2.29744,4.321365 -1.07799,0.404953 -2.3839,0.275345 -3.30941,-0.437607 -1.67244,-1.047546 -0.88688,-3.736572 1.01197,-3.883759 z m 159.61656,2.625641 c -0.30182,0.275116 -0.61988,0.5271 -0.9299,0.793167 l 0,15.999939 c 1.10943,-1.123627 2.66494,-1.80513 4.37606,-1.80513 l 1.83246,0 0,-14.987976 -5.27862,0 z m 102.42703,0.08205 c 2.19711,0.16008 2.54965,3.670074 0.95724,4.81366 -3.14312,1.617126 -4.14285,-4.559631 -0.95724,-4.81366 z m -193.50365,1.230759 0,17.613632 6.20853,0 0,-17.613632 -6.20853,0 z m 12.88201,0 0,17.613632 6.20852,0 0,-17.613632 -6.20852,0 z m 12.88202,0 0,14.851242 c 1.01229,-0.739182 2.25528,-1.176071 3.61022,-1.176071 l 2.5983,0 0,-13.675171 -6.20853,0 z m 12.88198,0.629074 0,13.046097 6.20856,0 0,-9.025604 c -2.19675,-1.152283 -4.2709,-2.501373 -6.20856,-4.020493 z m -106.58424,1.859818 c 1.57646,0.01823 2.65605,2.047043 1.69572,3.36409 -0.914,0.246292 -1.94258,0.194214 -2.78974,-0.246155 -1.80414,-0.647675 -0.92676,-3.108856 0.7658,-3.090591 0.10909,-0.01746 0.22312,-0.02856 0.32822,-0.02734 z m -11.92476,0.08205 c 0.90904,-0.128754 1.91274,0.707108 1.80513,1.723083 0.16419,1.357452 -1.42299,2.071701 -2.54358,1.668365 -1.42112,-0.360046 -1.06003,-2.231262 -0.082,-2.899139 0.23545,-0.286926 0.51748,-0.449387 0.82049,-0.49231 z m 163.33621,1.586319 c -1.97744,1.104004 -4.04571,2.051193 -6.20852,2.817093 l 0,10.20166 6.20852,0 0,-13.018753 z m -31.94519,3.282043 0,9.73671 6.18119,0 0,-8.314499 c -2.11557,-0.312988 -4.18476,-0.79628 -6.18119,-1.422211 z m 19.06317,1.285461 c -2.00991,0.34314 -4.0823,0.538055 -6.18115,0.574371 l 0,7.876877 6.18115,0 0,-8.451248 z"
         inkscape:connector-curvature="0"
         style="fill:#000000;fill-rule:nonzero;stroke-width:7.08661413;stroke-linecap:round;stroke-linejoin:round;stroke-miterlimit:4;stroke-dashoffset:0" />
      <path
         stroke-miterlimit="4"
         id="path7579"
         d="m 0,34.133224 0,19.254639 21.880268,0 0,-19.254639 -21.880268,0 z m 50.762222,0 0,19.254639 36.266541,0 0,-19.254639 -36.266541,0 z m 65.148518,0 0,19.254639 36.23919,0 0,-19.254639 -36.23919,0 z m 65.12114,0 0,19.254639 36.26655,0 0,-19.254639 -36.26655,0 z m 65.14851,0 0,19.254639 36.26654,0 0,-19.254639 -36.26654,0 z m 65.1485,0 0,19.254639 36.26654,0 0,-19.254639 -36.26654,0 z m 65.1485,0 0,19.254639 36.23919,0 0,-19.254639 -36.23919,0 z m 65.12115,0 0,19.254639 36.26657,0 0,-19.254639 -36.26657,0 z m 65.14853,0 0,19.254639 12.25293,0 0,-19.254639 -12.25293,0 z"
         inkscape:connector-curvature="0"
         style="fill:#000000;fill-rule:nonzero;stroke-width:7.08661413;stroke-linecap:round;stroke-linejoin:round;stroke-miterlimit:4;stroke-dashoffset:0" />
      <path
         stroke-miterlimit="4"
         id="rect7737"
         d="m 0,417.33881 0,19.80163 21.005058,0 0,-19.80163 -21.005058,0 z m 49.887016,0 0,19.80163 36.266548,0 0,-19.80163 -36.266548,0 z m 65.148504,0 0,19.80163 36.2392,0 0,-19.80163 -36.2392,0 z m 65.12116,0 0,19.80163 36.26654,0 0,-19.80163 -36.26654,0 z m 65.1485,0 0,19.80163 36.26654,0 0,-19.80163 -36.26654,0 z m 65.1485,0 0,19.80163 36.26654,0 0,-19.80163 -36.26654,0 z m 65.14849,0 0,19.80163 36.2392,0 0,-19.80163 -36.2392,0 z m 65.12116,0 0,19.80163 36.26654,0 0,-19.80163 -36.26654,0 z m 65.1485,0 0,19.80163 13.12817,0 0,-19.80163 -13.12817,0 z"
         inkscape:connector-curvature="0"
         style="fill:#000000;fill-rule:nonzero;stroke-width:7.08661413;stroke-linecap:round;stroke-linejoin:round;stroke-miterlimit:4;stroke-dashoffset:0" />
      <rect
         stroke-miterlimit="4"
         y="652.50177"
         x="312.2605"
         height="2.8284271"
         width="0"
         id="rect7739"
         style="fill:#000000;fill-rule:nonzero;stroke-width:7.08661413;stroke-linecap:round;stroke-linejoin:round;stroke-miterlimit:4;stroke-dashoffset:0" />
      <path
         stroke-miterlimit="4"
         id="rect7744"
         d="m 4.293999,453.8515 0,22.26318 12.362362,0 0,-22.26318 -12.362362,0 z m 17.941818,0 0,22.26318 8.041,0 0,-22.26318 -8.041,0 z m 120.067983,0 0,22.26318 12.36235,0 0,-22.26318 -12.36235,0 z m 17.94184,0 0,22.26318 8.041,0 0,-22.26318 -8.041,0 z m 12.63585,0 0,22.26318 8.041,0 0,-22.26318 -8.041,0 z m 166.29005,0 0,22.26318 8.04098,0 0,-22.26318 -8.04098,0 z m 12.25293,0 0,22.26318 8.04102,0 0,-22.26318 -8.04102,0 z m 11.81537,0 0,22.26318 12.36233,0 0,-22.26318 -12.36233,0 z m 30.19476,0 0,22.26318 8.04099,0 0,-22.26318 -8.04099,0 z m 12.25296,0 0,22.26318 8.04099,0 0,-22.26318 -8.04099,0 z m 12.25293,0 0,22.26318 8.04102,0 0,-22.26318 -8.04102,0 z m 68.26648,0 0,22.26318 8.04095,0 0,-22.26318 -8.04095,0 z m 13.18286,0 0,22.26318 12.36231,0 0,-22.26318 -12.36231,0 z"
         inkscape:connector-curvature="0"
         style="fill:#000000;fill-rule:nonzero;stroke-width:7.08661413;stroke-linecap:round;stroke-linejoin:round;stroke-miterlimit:4;stroke-dashoffset:0" />
      <path
         id="flowRoot7771"
         d="m 106.52078,461.83575 c 1.43179,0.11878 2.42761,-1.61383 1.86711,-2.86358 -0.49472,-1.38675 -2.64746,-1.73242 -3.46795,-0.45929 -0.7992,1.08258 -0.35933,2.99682 1.06936,3.26858 0.1736,0.042 0.35294,0.0606 0.53148,0.0542 m 1.96414,1.1211 c 1.78101,0.4703 2.54515,2.69793 1.85428,4.30621 -0.52869,1.3811 -1.98993,2.22076 -3.43494,2.2273 -1.71115,0.17627 -3.7312,-0.60956 -4.25834,-2.38395 -0.51795,-1.46927 0.0279,-3.43063 1.57045,-4.02768 0.22749,-0.47039 -1.05416,-0.44317 -1.18218,-1.02435 -1.64483,-1.80334 -0.99692,-5.19794 1.33194,-6.09125 1.8598,-0.62512 4.23998,-0.56866 5.64525,0.97156 1.36423,1.62335 1.20255,4.49368 -0.67963,5.66016 -0.26414,0.15832 -0.55011,0.27984 -0.84683,0.362 z m -0.27803,2.71747 c 0.17736,-1.37977 -1.71711,-2.28058 -2.74649,-1.41053 -1.03944,0.77149 -0.79779,2.75043 0.5399,3.04358 1.03385,0.34271 2.33718,-0.47888 2.20659,-1.63305 z M 97.318923,461.9433 c 0,-1.32138 0,-2.64276 0,-3.96417 -1.185089,0.0981 -2.557129,-0.29645 -3.571121,0.50329 -0.705765,0.82956 -0.637238,2.23679 0.120499,3.0022 0.994324,0.74841 2.306793,0.36078 3.450623,0.45868 z m 0,5.21972 c -0.214828,-0.98364 0.375168,-2.08294 -0.214401,-2.98174 -0.921066,-0.19587 -2.17923,-0.32721 -3.021912,0.30578 -0.812027,0.80969 -0.343613,2.58631 0.893005,2.63111 0.777664,0.104 1.562607,0.0108 2.343307,0.0449 z m 2.556076,2.10767 c -2.31221,-0.1189 -4.706711,0.32031 -6.948288,-0.42609 -1.196228,-0.49279 -1.974228,-1.77215 -1.866302,-3.06124 -0.0118,-1.23664 0.838043,-2.56827 2.151657,-2.67319 0.31633,-0.29211 -0.923874,-0.18433 -1.128922,-0.53998 -1.148849,-0.68805 -1.630142,-2.09628 -1.490341,-3.38116 0.05263,-1.30121 0.855087,-2.66474 2.198425,-2.9527 2.132446,-0.69287 4.392548,-0.19342 6.579529,-0.41699 1.097713,0.5147 0.214935,1.98938 0.504242,2.92199 0,3.50974 0,7.01959 0,10.52936 z"
         inkscape:connector-curvature="0"
         style="fill:#000000;stroke-width:1px" />
      <path
         id="flowRoot7779"
         d="m 299.8623,468.37753 c -2.95208,0.54227 -2.22039,-3.58059 -4.0888,-4.64444 -2.72858,-0.66558 -1.57153,4.86267 -4.19379,3.77405 -1.71487,-1.70874 -0.17657,-4.00821 -0.20874,-6.00217 -0.01,-1.89193 -0.58273,-3.85531 0.10486,-5.69345 2.13919,-1.61767 3.57202,2.1366 2.31091,3.56299 0.74698,2.72492 4.98877,0.32117 2.93503,-1.6911 -0.15469,-2.93469 4.48834,-2.06586 3.22623,0.66412 -0.11142,2.82465 -0.33933,5.65186 -0.0785,8.47431 0.006,0.51855 0.006,1.03723 -0.007,1.55569 z m -19.66827,-13.39016 c 2.7803,0 5.56058,0 8.34085,0 0,4.46337 0,8.92682 0,13.39016 -2.78027,3.4e-4 -5.56058,0 -8.34085,0 -0.13049,-2.94742 3.81903,-1.87906 5.17905,-3.31753 0.96591,-3.09326 -4.72159,-1.03461 -3.94925,-3.43704 1.10013,-1.70932 5.02002,0.23111 4.17917,-2.8946 -0.69303,-2.39767 -3.17639,-1.24588 -4.72592,-1.73025 -0.7276,-0.35132 -1.28391,-1.29077 -0.68305,-2.01074 z m -2.88791,2.33181 c -2.38486,-0.66275 -3.62942,2.23136 -3.61407,4.17405 -0.37421,2.37707 2.45694,3.47213 2.49124,5.59246 -0.44223,2.79749 -4.58002,1.59217 -4.51944,-0.85583 -0.38663,-2.68921 1.37067,-5.73673 -0.48297,-8.15802 -2.70096,-0.86048 -0.78949,-4.56738 1.56585,-3.2323 1.67429,-0.0737 4.98182,-0.0314 4.55939,2.47964 z m -13.77588,4.34983 c -0.9909,2.09567 -1.87433,-2.23993 -0.32797,-0.69593 0.13321,0.20502 0.36044,0.42115 0.32797,0.69593 z m -1.11209,4.70852 c 2.23325,-1.39596 1.5289,-4.37301 2.25916,-6.53305 0.12558,-2.35278 -4.3313,-2.48559 -4.15763,-0.0483 0.3859,2.21314 -0.52301,5.22007 1.89847,6.58139 z m 4.42154,-4.70852 c 0.36926,2.77914 -0.87796,6.36151 -3.92245,6.97387 -2.63227,0.2566 -5.09375,-2.30749 -4.78528,-4.92215 -0.55219,-3.02529 -0.16184,-6.72506 2.51025,-8.66934 2.68033,-1.30111 6.11279,1.07343 6.00754,4.01538 0.14316,0.85947 0.17798,1.73243 0.18994,2.60224 z m -14.35882,0 c -0.99091,2.09567 -1.87436,-2.23993 -0.32801,-0.69593 0.13324,0.20502 0.36048,0.42121 0.32801,0.69593 z m -1.11213,4.70852 c 2.23325,-1.39596 1.5289,-4.37301 2.25916,-6.53305 0.12558,-2.35278 -4.3313,-2.48559 -4.15759,-0.0483 0.38586,2.21314 -0.52301,5.22007 1.89843,6.58139 z m 4.42154,-4.70852 c 0.36927,2.77914 -0.87796,6.36151 -3.92245,6.97387 -2.63227,0.2566 -5.09375,-2.30749 -4.78525,-4.92215 -0.55228,-3.02536 -0.16187,-6.72512 2.51025,-8.6694 2.68033,-1.30112 6.11273,1.07349 6.00754,4.01538 0.14319,0.85953 0.17801,1.73249 0.18991,2.6023 z"
         inkscape:connector-curvature="0"
         style="fill:#000000;stroke-width:1px" />
      <path
         id="flowRoot7815"
         d="m 67.399246,446.51282 c 1.715942,-0.94889 4.082642,-0.95203 5.580536,0.41705 1.282234,1.30478 1.455109,3.33075 1.033928,5.03265 -0.39016,1.46765 -1.685959,2.67347 -3.218323,2.82071 -1.050476,0.16303 -2.140625,-0.0199 -3.104607,-0.4584 -0.523521,-0.47446 -0.38739,-1.65839 -0.08035,-1.98331 0.998451,0.6536 2.411964,1.0032 3.452805,0.24362 0.876968,-0.69986 0.977455,-1.95654 0.822784,-2.99145 -0.13118,-0.88037 -0.760941,-1.71607 -1.678116,-1.85858 -0.742691,-0.15534 -1.530312,0.006 -2.189362,0.36883 -0.652588,0.74542 -0.734596,-0.32803 -0.619339,-0.83365 0.0024,-0.25247 0.0046,-0.505 4.6e-5,-0.75748 z m -9.389175,0 c 1.715942,-0.94889 4.082626,-0.95203 5.580528,0.41705 1.282242,1.30478 1.455109,3.33075 1.03392,5.03265 -0.39016,1.46765 -1.685959,2.67347 -3.218307,2.82071 -1.050484,0.16303 -2.140633,-0.0199 -3.104614,-0.4584 -0.523521,-0.47446 -0.387375,-1.65839 -0.08036,-1.98331 0.998451,0.6536 2.411964,1.0032 3.452812,0.24362 0.876968,-0.69986 0.977463,-1.95654 0.822784,-2.99145 -0.131172,-0.88037 -0.760933,-1.71607 -1.678123,-1.85858 -0.742691,-0.15534 -1.530304,0.006 -2.189354,0.36883 -0.652588,0.74542 -0.734604,-0.32803 -0.619347,-0.83365 0.0024,-0.25247 0.0046,-0.505 6.1e-5,-0.75748 z"
         inkscape:connector-curvature="0"
         style="fill:#000000;stroke-width:1px" />
      <path
         d="m 205.68256,446.51282 c 1.71594,-0.94889 4.08262,-0.95203 5.58053,0.41705 1.28224,1.30478 1.45511,3.33075 1.03392,5.03265 -0.39015,1.46765 -1.68596,2.67347 -3.21832,2.82071 -1.05048,0.16303 -2.14063,-0.0199 -3.1046,-0.4584 -0.52351,-0.47446 -0.38738,-1.65839 -0.0804,-1.98331 0.99846,0.6536 2.41197,1.0032 3.45282,0.24362 0.87697,-0.69986 0.97746,-1.95654 0.82279,-2.99145 -0.13118,-0.88037 -0.76095,-1.71607 -1.67814,-1.85858 -0.74269,-0.15534 -1.5303,0.006 -2.18936,0.36883 -0.65257,0.74542 -0.73459,-0.32803 -0.61934,-0.83365 0.002,-0.25247 0.005,-0.505 6e-5,-0.75748 z m -9.3892,0 c 1.71596,-0.94889 4.08265,-0.95203 5.58056,0.41705 1.28222,1.30478 1.4551,3.33075 1.03392,5.03265 -0.39017,1.46765 -1.68598,2.67347 -3.21833,2.82071 -1.05049,0.16303 -2.14062,-0.0199 -3.10461,-0.4584 -0.52352,-0.47446 -0.38738,-1.65839 -0.0804,-1.98331 0.99845,0.6536 2.41195,1.0032 3.4528,0.24362 0.87697,-0.69986 0.97746,-1.95654 0.82279,-2.99145 -0.13118,-0.88037 -0.76095,-1.71607 -1.67812,-1.85858 -0.74271,-0.15534 -1.5303,0.006 -2.18936,0.36883 -0.65258,0.74542 -0.73461,-0.32803 -0.61934,-0.83365 0.002,-0.25247 0.005,-0.505 4e-5,-0.75748 z"
         id="path7830"
         inkscape:connector-curvature="0"
         style="fill:#000000;stroke-width:1px" />
    </g>
  </g>
</svg>
